<?xml version="1.0" encoding="iso-8859-1"?>
<!-- Generator: Adobe Illustrator 18.0.0, SVG Export Plug-In . SVG Version: 6.00 Build 0)  -->
<!DOCTYPE svg PUBLIC "-//W3C//DTD SVG 1.1//EN" "http://www.w3.org/Graphics/SVG/1.1/DTD/svg11.dtd">
<svg version="1.1" id="Capa_1" xmlns="http://www.w3.org/2000/svg" xmlns:xlink="http://www.w3.org/1999/xlink" x="0px" y="0px"
	 viewBox="0 0 335.584 335.584" style="enable-background:new 0 0 335.584 335.584;" xml:space="preserve">
<g>
	<g>
		<path d="M255.009,294.535h-13.145c-1.557-47.631-17.844-90.971-43.365-114.785c-0.327-0.422-6.66-6.197-6.642-12.043
			c0.011-3.467,1.857-7.047,5.637-10.932c0.018-0.014,0.036-0.027,0.053-0.043c26.072-23.615,42.736-67.457,44.311-115.682h13.151
			c11.317,0,20.524-9.207,20.524-20.525C275.533,9.209,266.326,0,255.009,0H80.575C69.258,0,60.051,9.209,60.051,20.525
			c0,11.318,9.207,20.525,20.524,20.525H93.72c1.575,48.225,18.244,92.066,44.316,115.682c0.017,0.016,0.035,0.029,0.053,0.043
			c3.779,3.885,5.637,7.465,5.637,10.932c0,3.939-4.285,9.973-6.642,12.043c-25.521,23.814-41.807,67.154-43.362,114.785H80.575
			c-11.317,0-20.524,9.209-20.524,20.525c0,11.316,9.207,20.524,20.524,20.524h174.434c11.317,0,20.524-9.207,20.524-20.524
			C275.533,303.744,266.326,294.535,255.009,294.535z M80.575,26.051c-3.046,0-5.524-2.479-5.524-5.525S77.529,15,80.575,15h174.434
			c3.046,0,5.524,2.479,5.524,5.525s-2.478,5.525-5.524,5.525H80.575z M108.723,41.051H226.86
			c-0.75,21.816-4.759,42.531-11.41,60.428l-90.723,11.01C115.331,92.336,109.632,67.504,108.723,41.051z M132.436,126.664
			l75.987-9.223c-5.72,11.059-12.622,20.494-20.501,27.748c-0.222,0.176-8.422,8.246-9.911,15.018h-20.439
			c-2.097-7.154-9.709-14.857-9.94-15.039C142.053,140.025,136.96,133.797,132.436,126.664z M148.104,189.971
			c0.275-0.25,7.707-8.516,9.563-14.764h20.25c1.535,6.742,9.285,14.514,9.561,14.764c16.654,15.086,28.994,39.912,35.144,69.127
			l-52.504-17.131c-1.512-0.494-3.141-0.494-4.652,0L112.96,259.1C119.11,229.883,131.45,205.057,148.104,189.971z M110.187,275.781
			l57.605-18.795l57.604,18.795c0.757,6.129,1.242,12.397,1.462,18.754H108.726C108.945,288.178,109.431,281.91,110.187,275.781z
			 M255.009,320.584H80.575c-3.046,0-5.524-2.477-5.524-5.524c0-3.047,2.479-5.525,5.524-5.525h174.434
			c3.046,0,5.524,2.479,5.524,5.525C260.533,318.107,258.055,320.584,255.009,320.584z"/>
	</g>
</g>
<g>
</g>
<g>
</g>
<g>
</g>
<g>
</g>
<g>
</g>
<g>
</g>
<g>
</g>
<g>
</g>
<g>
</g>
<g>
</g>
<g>
</g>
<g>
</g>
<g>
</g>
<g>
</g>
<g>
</g>
</svg>
