<?xml version="1.0" encoding="iso-8859-1"?>
<!-- Generator: Adobe Illustrator 18.0.0, SVG Export Plug-In . SVG Version: 6.00 Build 0)  -->
<!DOCTYPE svg PUBLIC "-//W3C//DTD SVG 1.1//EN" "http://www.w3.org/Graphics/SVG/1.1/DTD/svg11.dtd">
<svg version="1.1" id="Capa_1" xmlns="http://www.w3.org/2000/svg" xmlns:xlink="http://www.w3.org/1999/xlink" x="0px" y="0px"
	 viewBox="0 0 216.374 216.374" style="enable-background:new 0 0 216.374 216.374;" xml:space="preserve">
<g>
	<path d="M207.374,30.135h-25.438V13.432c0-4.971-4.029-9-9-9s-9,4.029-9,9v16.703H52.438V13.432c0-4.971-4.029-9-9-9s-9,4.029-9,9
		v16.703H9c-4.971,0-9,4.029-9,9v163.808c0,4.971,4.029,9,9,9h198.374c4.971,0,9-4.029,9-9V39.135
		C216.374,34.164,212.345,30.135,207.374,30.135z M198.374,48.135v19.997H18V48.135H198.374z M18,193.942V86.132h180.374v107.811H18
		z"/>
	<path d="M145.534,109.813c-3.115-3.873-8.781-4.488-12.653-1.373L108.187,128.3L83.494,108.44
		c-3.875-3.115-9.539-2.499-12.653,1.373c-3.115,3.874-2.5,9.539,1.373,12.654l21.613,17.382l-21.613,17.382
		c-3.873,3.115-4.488,8.78-1.373,12.654c1.778,2.211,4.387,3.359,7.019,3.359c1.979,0,3.972-0.649,5.634-1.986l24.693-19.859
		l24.693,19.859c1.663,1.337,3.655,1.986,5.634,1.986c2.632,0,5.241-1.149,7.019-3.359c3.115-3.874,2.5-9.539-1.373-12.654
		l-21.613-17.382l21.613-17.382C148.034,119.353,148.649,113.688,145.534,109.813z"/>
</g>
<g>
</g>
<g>
</g>
<g>
</g>
<g>
</g>
<g>
</g>
<g>
</g>
<g>
</g>
<g>
</g>
<g>
</g>
<g>
</g>
<g>
</g>
<g>
</g>
<g>
</g>
<g>
</g>
<g>
</g>
</svg>
